<?xml version="1.0" encoding="UTF-8" standalone="no"?>
<!DOCTYPE svg PUBLIC "-//W3C//DTD SVG 1.1//EN" "http://www.w3.org/Graphics/SVG/1.1/DTD/svg11.dtd">
<svg xmlns="http://www.w3.org/2000/svg" xmlns:xlink="http://www.w3.org/1999/xlink" version="1.1" width="500" height="500" viewBox="0 0 500 500" xml:space="preserve">
<desc>Created with Fabric.js 3.6.3</desc>
<defs>
</defs>
<g transform="matrix(0.9198728727883696 0.14046046538797216 -0.14046046538797216 0.9198728727883696 250.00000000000003 249.99999999999994)">
<path style="stroke: none; stroke-width: 0; stroke-dasharray: none; stroke-linecap: round; stroke-dashoffset: 0; stroke-linejoin: round; stroke-miterlimit: 4; fill: rgb(255,255,255); fill-rule: nonzero; opacity: 0.3;" transform=" translate(-347.214464, -408.15557)" d="m 239.32338 158.15557 c -78.60067 0 -142.108912 63.50635 -142.108912 142.10701 l 0 215.78407 c 0 78.60067 63.508242 142.10892 142.108912 142.10892 l 215.78217 0 c 78.60067 0 142.10891 -63.50825 142.10891 -142.10892 l 0 -215.78407 c 0 -78.60066 -63.50824 -142.10701 -142.10891 -142.10701 l -215.78217 0 z" stroke-linecap="round"/>
</g>
<g transform="matrix(0.8502097381604169 -2.0824e-16 2.0824e-16 0.8502097381604167 250.00000000000043 250.00000000000006)">
<path style="stroke: none; stroke-width: 0; stroke-dasharray: none; stroke-linecap: round; stroke-dashoffset: 0; stroke-linejoin: round; stroke-miterlimit: 4; fill: rgb(255,255,255); fill-rule: nonzero; opacity: 1;" transform=" translate(-347.214464, -408.15557)" d="m 239.32338 158.15557 c -78.60067 0 -142.108912 63.50635 -142.108912 142.10701 l 0 215.78407 c 0 78.60067 63.508242 142.10892 142.108912 142.10892 l 215.78217 0 c 78.60067 0 142.10891 -63.50825 142.10891 -142.10892 l 0 -215.78407 c 0 -78.60066 -63.50824 -142.10701 -142.10891 -142.10701 l -215.78217 0 z" stroke-linecap="round"/>
</g>
<g transform="matrix(1.9861379323801638 0 0 1.9861379323801638 249.99999999999991 250.00000000000097)">
<g style="">
		<g transform="matrix(1.3333333333333335 0 0 1.3333333333333335 -21.07799999999999 54.83333333333334)">
<path style="stroke: none; stroke-width: 1; stroke-dasharray: none; stroke-linecap: butt; stroke-dashoffset: 0; stroke-linejoin: miter; stroke-miterlimit: 4; fill: rgb(245,79,41); fill-rule: nonzero; opacity: 1;" transform=" translate(-33.691500000000005, -90.625)" d="m 29.004 90.625 c 0 2.5898 2.0977 4.6875 4.6875 4.6875 s 4.6875 -2.0977 4.6875 -4.6875 v -4.6875 h -9.375 z" stroke-linecap="round"/>
</g>
		<g transform="matrix(1.3333333333333335 0 0 1.3333333333333335 -22.205999999999996 -20.760000000000005)">
<path style="stroke: none; stroke-width: 1; stroke-dasharray: none; stroke-linecap: butt; stroke-dashoffset: 0; stroke-linejoin: miter; stroke-miterlimit: 4; fill: rgb(245,79,41); fill-rule: nonzero; opacity: 1;" transform=" translate(-32.8455, -33.93)" d="m 38.25 42.059 c -0.75 -7.0625 -4.9219 -13.098 -10.809 -16.258 v 3.8867 c 0.011719 6.2422 4.6211 11.523 10.809 12.371 z" stroke-linecap="round"/>
</g>
		<g transform="matrix(1.3333333333333335 0 0 1.3333333333333335 -37.74516 4.832567581469711)">
<path style="stroke: none; stroke-width: 1; stroke-dasharray: none; stroke-linecap: butt; stroke-dashoffset: 0; stroke-linejoin: miter; stroke-miterlimit: 4; fill: rgb(245,79,41); fill-rule: nonzero; opacity: 1;" transform=" translate(-21.19113, -53.12442568610228)" d="m 24.316 29.688 v -5.2305 c -1.6055 -0.53906 -3.2734 -0.87109 -4.9609 -0.98047 c -3.0195 -0.19531 -6.0469 0.28906 -8.8555 1.4219 c -3.8867 1.5664 -6.4961 5.582 -6.4961 10 v 17.688 c 0 4.5352 2.7812 8.6289 6.9258 10.188 v -0.003907 c 5.1562 1.9219 10.867 1.6836 15.844 -0.66016 c 0.48047 -0.23047 1.0508 -0.19531 1.5039 0.089844 c 0.45312 0.28906 0.72656 0.78516 0.72656 1.3203 v 19.293 h 9.375 v -37.578 c -3.8516 -0.39062 -7.4219 -2.1992 -10.02 -5.0703 c -2.5977 -2.8711 -4.0391 -6.6055 -4.043 -10.477 z m -14.062 20.312 c 0 0.86328 -0.69922 1.5625 -1.5625 1.5625 c -0.86328 0 -1.5625 -0.69922 -1.5625 -1.5625 v -12.5 c 0 -0.86328 0.69922 -1.5625 1.5625 -1.5625 c 0.86328 0 1.5625 0.69922 1.5625 1.5625 z" stroke-linecap="round"/>
</g>
		<g transform="matrix(1.3333333333333335 0 0 1.3333333333333335 4.205800000000021 -18.8596)">
<path style="stroke: none; stroke-width: 1; stroke-dasharray: none; stroke-linecap: butt; stroke-dashoffset: 0; stroke-linejoin: miter; stroke-miterlimit: 4; fill: rgb(245,79,41); fill-rule: nonzero; opacity: 1;" transform=" translate(-52.65435000000001, -35.3553)" d="m 57.418 35.121 c -1.2656 -1.9922 -2.1992 -4.1797 -2.7617 -6.4727 c -3.8164 3.4961 -6.2266 8.2656 -6.7656 13.414 c 4.1406 -0.56641 7.7188 -3.1758 9.5273 -6.9414 z" stroke-linecap="round"/>
</g>
		<g transform="matrix(1.3333333333333335 0 0 1.3333333333333335 3.9220000000000077 54.83333333333334)">
<path style="stroke: none; stroke-width: 1; stroke-dasharray: none; stroke-linecap: butt; stroke-dashoffset: 0; stroke-linejoin: miter; stroke-miterlimit: 4; fill: rgb(245,79,41); fill-rule: nonzero; opacity: 1;" transform=" translate(-52.4415, -90.625)" d="m 47.754 90.625 c 0 2.5898 2.0977 4.6875 4.6875 4.6875 s 4.6875 -2.0977 4.6875 -4.6875 v -4.6875 h -9.375 z" stroke-linecap="round"/>
</g>
		<g transform="matrix(1.3333333333333335 0 0 1.3333333333333335 35.17200000000002 -34.74973333333334)">
<path style="stroke: none; stroke-width: 1; stroke-dasharray: none; stroke-linecap: butt; stroke-dashoffset: 0; stroke-linejoin: miter; stroke-miterlimit: 4; fill: rgb(245,79,41); fill-rule: nonzero; opacity: 1;" transform=" translate(-75.879, -23.4377)" d="m 75.879 4.6875 c -4.9727 0 -9.7422 1.9766 -13.258 5.4922 c -3.5156 3.5156 -5.4922 8.2852 -5.4922 13.258 s 1.9766 9.7422 5.4922 13.258 c 3.5156 3.5156 8.2852 5.4922 13.258 5.4922 s 9.7422 -1.9766 13.258 -5.4922 c 3.5156 -3.5156 5.4922 -8.2852 5.4922 -13.258 c -0.003906 -4.9727 -1.9844 -9.7383 -5.4961 -13.254 c -3.5156 -3.5117 -8.2812 -5.4922 -13.254 -5.4961 z m 0 31.25 c -1.8945 0 -3.6055 -1.1406 -4.332 -2.8945 c -0.72266 -1.75 -0.32422 -3.7656 1.0156 -5.1094 c 1.3438 -1.3398 3.3594 -1.7383 5.1094 -1.0156 c 1.7539 0.72656 2.8945 2.4375 2.8945 4.332 c -0.003906 2.5859 -2.1016 4.6836 -4.6875 4.6875 z m 9.5938 -10.559 c -0.62891 0.59375 -1.6172 0.5625 -2.207 -0.066406 c -1.8438 -2.0195 -4.4492 -3.168 -7.1797 -3.168 c -2.7344 0 -5.3398 1.1484 -7.1797 3.168 c -0.58984 0.62891 -1.582 0.66016 -2.2109 0.066406 c -0.62891 -0.58984 -0.65625 -1.5781 -0.066406 -2.207 c 2.4336 -2.6484 5.8633 -4.1523 9.457 -4.1523 s 7.0234 1.5039 9.4531 4.1523 c 0.59375 0.62891 0.5625 1.6172 -0.066406 2.207 z m 3.0898 -4.2617 c -0.42969 0 -0.84375 -0.17969 -1.1406 -0.49219 c -3.0312 -3.2266 -7.0586 -5 -11.336 -5 c -4.2773 0 -8.3047 1.7734 -11.34 5 c -0.58984 0.62891 -1.582 0.66016 -2.2109 0.066406 c -0.62891 -0.58984 -0.65625 -1.582 -0.066406 -2.207 c 3.6328 -3.8594 8.4688 -5.9844 13.617 -5.9844 c 5.1484 0 9.9805 2.125 13.617 5.9844 h -0.003906 c 0.42969 0.45312 0.54688 1.1172 0.29688 1.6914 c -0.24609 0.57031 -0.80859 0.94141 -1.4336 0.94141 z" stroke-linecap="round"/>
</g>
		<g transform="matrix(1.3333333333333335 0 0 1.3333333333333335 35.17133333333335 -24.333333333333332)">
<path style="stroke: none; stroke-width: 1; stroke-dasharray: none; stroke-linecap: butt; stroke-dashoffset: 0; stroke-linejoin: miter; stroke-miterlimit: 4; fill: rgb(245,79,41); fill-rule: nonzero; opacity: 1;" transform=" translate(-75.8785, -31.25)" d="m 77.441 31.25 c 0 2.082 -3.125 2.082 -3.125 0 s 3.125 -2.082 3.125 0" stroke-linecap="round"/>
</g>
		<g transform="matrix(1.3333333333333335 0 0 1.3333333333333335 20.588840000000015 14.46360000000001)">
<path style="stroke: none; stroke-width: 1; stroke-dasharray: none; stroke-linecap: butt; stroke-dashoffset: 0; stroke-linejoin: miter; stroke-miterlimit: 4; fill: rgb(245,79,41); fill-rule: nonzero; opacity: 1;" transform=" translate(-64.94163, -60.3477)" d="m 79.004 50 c 0 0.86328 -0.69922 1.5625 -1.5625 1.5625 c -0.86328 0 -1.5625 -0.69922 -1.5625 -1.5625 v -4.6875 c -6.2773 -0.003906 -12.246 -2.7109 -16.383 -7.4297 c -2.5469 4.1523 -6.8945 6.8711 -11.742 7.3438 v 37.586 h 9.375 v -19.293 c 0 -0.53516 0.27344 -1.0352 0.72656 -1.3203 c 0.45312 -0.28516 1.0234 -0.32031 1.5039 -0.089844 c 4.9766 2.3398 10.688 2.582 15.844 0.66016 c 4.1406 -1.5586 6.9258 -5.6523 6.9258 -10.188 v -8.1914 c -1.0234 0.30078 -2.0664 0.52734 -3.125 0.67188 z" stroke-linecap="round"/>
</g>
</g>
</g>
</svg>
