<?xml version="1.0" encoding="UTF-8" standalone="no"?>
<!DOCTYPE svg PUBLIC "-//W3C//DTD SVG 1.1//EN" "http://www.w3.org/Graphics/SVG/1.1/DTD/svg11.dtd">
<svg xmlns="http://www.w3.org/2000/svg" xmlns:xlink="http://www.w3.org/1999/xlink" version="1.1" width="595.0" height="297.5" viewBox="0 0 832 416" xml:space="preserve">
<desc>Created with Fabric.js 3.6.3</desc>
<defs>
</defs>
<rect x="0" y="0" width="100%" height="100%" fill="#ffffff"/>
<g transform="matrix(3.347628354636251 0 0 2.5768277851732786 412.91295967813977 206.17160635327303)">
<rect style="stroke: none; stroke-width: 1; stroke-dasharray: none; stroke-linecap: butt; stroke-dashoffset: 0; stroke-linejoin: miter; stroke-miterlimit: 4; fill: rgb(0,119,182); fill-rule: nonzero; opacity: 1;" x="-181.5" y="-106" rx="0" ry="0" width="363" height="212"/>
</g>
<g transform="matrix(0.6844506281383904 0.10451254364311088 -0.10451254364311074 0.6844506281383896 188.42020357605108 203.0420419998489)">
<path style="stroke: none; stroke-width: 0; stroke-dasharray: none; stroke-linecap: round; stroke-dashoffset: 0; stroke-linejoin: round; stroke-miterlimit: 4; fill: rgb(255,255,255); fill-rule: nonzero; opacity: 0.3;" transform=" translate(-347.214464, -408.15557)" d="m 239.32338 158.15557 c -78.60067 0 -142.108912 63.50635 -142.108912 142.10701 l 0 215.78407 c 0 78.60067 63.508242 142.10892 142.108912 142.10892 l 215.78217 0 c 78.60067 0 142.10891 -63.50825 142.10891 -142.10892 l 0 -215.78407 c 0 -78.60066 -63.50824 -142.10701 -142.10891 -142.10701 l -215.78217 0 z" stroke-linecap="round"/>
</g>
<g transform="matrix(0.6326163174801597 -1.5495e-16 1.5495e-16 0.6326163174801596 188.42020357605185 203.04204199984918)">
<path style="stroke: none; stroke-width: 0; stroke-dasharray: none; stroke-linecap: round; stroke-dashoffset: 0; stroke-linejoin: round; stroke-miterlimit: 4; fill: rgb(255,255,255); fill-rule: nonzero; opacity: 1;" transform=" translate(-347.214464, -408.15557)" d="m 239.32338 158.15557 c -78.60067 0 -142.108912 63.50635 -142.108912 142.10701 l 0 215.78407 c 0 78.60067 63.508242 142.10892 142.108912 142.10892 l 215.78217 0 c 78.60067 0 142.10891 -63.50825 142.10891 -142.10892 l 0 -215.78407 c 0 -78.60066 -63.50824 -142.10701 -142.10891 -142.10701 l -215.78217 0 z" stroke-linecap="round"/>
</g>
<g transform="matrix(1.4778274211591416 0 0 1.477827421159142 188.42020357605156 203.04204199984957)">
<g style="">
		<g transform="matrix(1.3333333333333335 0 0 1.3333333333333335 -21.07799999999999 54.83333333333334)">
<path style="stroke: none; stroke-width: 1; stroke-dasharray: none; stroke-linecap: butt; stroke-dashoffset: 0; stroke-linejoin: miter; stroke-miterlimit: 4; fill: rgb(0,119,182); fill-rule: nonzero; opacity: 1;" transform=" translate(-33.691500000000005, -90.625)" d="m 29.004 90.625 c 0 2.5898 2.0977 4.6875 4.6875 4.6875 s 4.6875 -2.0977 4.6875 -4.6875 v -4.6875 h -9.375 z" stroke-linecap="round"/>
</g>
		<g transform="matrix(1.3333333333333335 0 0 1.3333333333333335 -22.205999999999996 -20.760000000000005)">
<path style="stroke: none; stroke-width: 1; stroke-dasharray: none; stroke-linecap: butt; stroke-dashoffset: 0; stroke-linejoin: miter; stroke-miterlimit: 4; fill: rgb(0,119,182); fill-rule: nonzero; opacity: 1;" transform=" translate(-32.8455, -33.93)" d="m 38.25 42.059 c -0.75 -7.0625 -4.9219 -13.098 -10.809 -16.258 v 3.8867 c 0.011719 6.2422 4.6211 11.523 10.809 12.371 z" stroke-linecap="round"/>
</g>
		<g transform="matrix(1.3333333333333335 0 0 1.3333333333333335 -37.74516 4.832567581469711)">
<path style="stroke: none; stroke-width: 1; stroke-dasharray: none; stroke-linecap: butt; stroke-dashoffset: 0; stroke-linejoin: miter; stroke-miterlimit: 4; fill: rgb(0,119,182); fill-rule: nonzero; opacity: 1;" transform=" translate(-21.19113, -53.12442568610228)" d="m 24.316 29.688 v -5.2305 c -1.6055 -0.53906 -3.2734 -0.87109 -4.9609 -0.98047 c -3.0195 -0.19531 -6.0469 0.28906 -8.8555 1.4219 c -3.8867 1.5664 -6.4961 5.582 -6.4961 10 v 17.688 c 0 4.5352 2.7812 8.6289 6.9258 10.188 v -0.003907 c 5.1562 1.9219 10.867 1.6836 15.844 -0.66016 c 0.48047 -0.23047 1.0508 -0.19531 1.5039 0.089844 c 0.45312 0.28906 0.72656 0.78516 0.72656 1.3203 v 19.293 h 9.375 v -37.578 c -3.8516 -0.39062 -7.4219 -2.1992 -10.02 -5.0703 c -2.5977 -2.8711 -4.0391 -6.6055 -4.043 -10.477 z m -14.062 20.312 c 0 0.86328 -0.69922 1.5625 -1.5625 1.5625 c -0.86328 0 -1.5625 -0.69922 -1.5625 -1.5625 v -12.5 c 0 -0.86328 0.69922 -1.5625 1.5625 -1.5625 c 0.86328 0 1.5625 0.69922 1.5625 1.5625 z" stroke-linecap="round"/>
</g>
		<g transform="matrix(1.3333333333333335 0 0 1.3333333333333335 4.205800000000021 -18.8596)">
<path style="stroke: none; stroke-width: 1; stroke-dasharray: none; stroke-linecap: butt; stroke-dashoffset: 0; stroke-linejoin: miter; stroke-miterlimit: 4; fill: rgb(0,119,182); fill-rule: nonzero; opacity: 1;" transform=" translate(-52.65435000000001, -35.3553)" d="m 57.418 35.121 c -1.2656 -1.9922 -2.1992 -4.1797 -2.7617 -6.4727 c -3.8164 3.4961 -6.2266 8.2656 -6.7656 13.414 c 4.1406 -0.56641 7.7188 -3.1758 9.5273 -6.9414 z" stroke-linecap="round"/>
</g>
		<g transform="matrix(1.3333333333333335 0 0 1.3333333333333335 3.9220000000000077 54.83333333333334)">
<path style="stroke: none; stroke-width: 1; stroke-dasharray: none; stroke-linecap: butt; stroke-dashoffset: 0; stroke-linejoin: miter; stroke-miterlimit: 4; fill: rgb(0,119,182); fill-rule: nonzero; opacity: 1;" transform=" translate(-52.4415, -90.625)" d="m 47.754 90.625 c 0 2.5898 2.0977 4.6875 4.6875 4.6875 s 4.6875 -2.0977 4.6875 -4.6875 v -4.6875 h -9.375 z" stroke-linecap="round"/>
</g>
		<g transform="matrix(1.3333333333333335 0 0 1.3333333333333335 35.17200000000002 -34.74973333333334)">
<path style="stroke: none; stroke-width: 1; stroke-dasharray: none; stroke-linecap: butt; stroke-dashoffset: 0; stroke-linejoin: miter; stroke-miterlimit: 4; fill: rgb(0,119,182); fill-rule: nonzero; opacity: 1;" transform=" translate(-75.879, -23.4377)" d="m 75.879 4.6875 c -4.9727 0 -9.7422 1.9766 -13.258 5.4922 c -3.5156 3.5156 -5.4922 8.2852 -5.4922 13.258 s 1.9766 9.7422 5.4922 13.258 c 3.5156 3.5156 8.2852 5.4922 13.258 5.4922 s 9.7422 -1.9766 13.258 -5.4922 c 3.5156 -3.5156 5.4922 -8.2852 5.4922 -13.258 c -0.003906 -4.9727 -1.9844 -9.7383 -5.4961 -13.254 c -3.5156 -3.5117 -8.2812 -5.4922 -13.254 -5.4961 z m 0 31.25 c -1.8945 0 -3.6055 -1.1406 -4.332 -2.8945 c -0.72266 -1.75 -0.32422 -3.7656 1.0156 -5.1094 c 1.3438 -1.3398 3.3594 -1.7383 5.1094 -1.0156 c 1.7539 0.72656 2.8945 2.4375 2.8945 4.332 c -0.003906 2.5859 -2.1016 4.6836 -4.6875 4.6875 z m 9.5938 -10.559 c -0.62891 0.59375 -1.6172 0.5625 -2.207 -0.066406 c -1.8438 -2.0195 -4.4492 -3.168 -7.1797 -3.168 c -2.7344 0 -5.3398 1.1484 -7.1797 3.168 c -0.58984 0.62891 -1.582 0.66016 -2.2109 0.066406 c -0.62891 -0.58984 -0.65625 -1.5781 -0.066406 -2.207 c 2.4336 -2.6484 5.8633 -4.1523 9.457 -4.1523 s 7.0234 1.5039 9.4531 4.1523 c 0.59375 0.62891 0.5625 1.6172 -0.066406 2.207 z m 3.0898 -4.2617 c -0.42969 0 -0.84375 -0.17969 -1.1406 -0.49219 c -3.0312 -3.2266 -7.0586 -5 -11.336 -5 c -4.2773 0 -8.3047 1.7734 -11.34 5 c -0.58984 0.62891 -1.582 0.66016 -2.2109 0.066406 c -0.62891 -0.58984 -0.65625 -1.582 -0.066406 -2.207 c 3.6328 -3.8594 8.4688 -5.9844 13.617 -5.9844 c 5.1484 0 9.9805 2.125 13.617 5.9844 h -0.003906 c 0.42969 0.45312 0.54688 1.1172 0.29688 1.6914 c -0.24609 0.57031 -0.80859 0.94141 -1.4336 0.94141 z" stroke-linecap="round"/>
</g>
		<g transform="matrix(1.3333333333333335 0 0 1.3333333333333335 35.17133333333335 -24.333333333333332)">
<path style="stroke: none; stroke-width: 1; stroke-dasharray: none; stroke-linecap: butt; stroke-dashoffset: 0; stroke-linejoin: miter; stroke-miterlimit: 4; fill: rgb(0,119,182); fill-rule: nonzero; opacity: 1;" transform=" translate(-75.8785, -31.25)" d="m 77.441 31.25 c 0 2.082 -3.125 2.082 -3.125 0 s 3.125 -2.082 3.125 0" stroke-linecap="round"/>
</g>
		<g transform="matrix(1.3333333333333335 0 0 1.3333333333333335 20.588840000000015 14.46360000000001)">
<path style="stroke: none; stroke-width: 1; stroke-dasharray: none; stroke-linecap: butt; stroke-dashoffset: 0; stroke-linejoin: miter; stroke-miterlimit: 4; fill: rgb(0,119,182); fill-rule: nonzero; opacity: 1;" transform=" translate(-64.94163, -60.3477)" d="m 79.004 50 c 0 0.86328 -0.69922 1.5625 -1.5625 1.5625 c -0.86328 0 -1.5625 -0.69922 -1.5625 -1.5625 v -4.6875 c -6.2773 -0.003906 -12.246 -2.7109 -16.383 -7.4297 c -2.5469 4.1523 -6.8945 6.8711 -11.742 7.3438 v 37.586 h 9.375 v -19.293 c 0 -0.53516 0.27344 -1.0352 0.72656 -1.3203 c 0.45312 -0.28516 1.0234 -0.32031 1.5039 -0.089844 c 4.9766 2.3398 10.688 2.582 15.844 0.66016 c 4.1406 -1.5586 6.9258 -5.6523 6.9258 -10.188 v -8.1914 c -1.0234 0.30078 -2.0664 0.52734 -3.125 0.67188 z" stroke-linecap="round"/>
</g>
</g>
</g>
<g transform="matrix(1 0 0 1 830.5744817756024 179.9587385502949)" style=""><path fill="#ffffff" opacity="1" d="M-375.53-65.86L-375.53-65.86Q-375.53-59.49-378.57-57.02Q-381.62-54.56-387.99-54.56L-387.99-54.56Q-394.95-54.56-397.61-57.46Q-400.27-60.36-400.27-65.86L-400.27-65.86Q-400.27-71.86-397.46-74.51Q-394.66-77.17-387.99-77.17L-387.99-77.17Q-381.33-77.17-378.43-74.56Q-375.53-71.95-375.53-65.86ZM-377.46 62.17L-398.24 62.17L-398.24-39.20L-377.46-39.20L-377.46 62.17Z"/><path fill="#ffffff" opacity="1" d="M-244.31 62.17L-266.92 62.17L-266.92 3.22L-323.74 3.22L-323.74 62.17L-346.25 62.17L-346.25-71.57L-323.74-71.57L-323.74-17.36L-266.92-17.36L-266.92-71.57L-244.31-71.57L-244.31 62.17Z"/><path fill="#ffffff" opacity="1" d="M-128.65 62.17L-149.42 62.17L-149.42 48.15Q-152.81 51.54-156.82 54.63Q-160.83 57.72-165.32 60.04Q-169.81 62.36-174.59 63.76Q-179.38 65.16-184.21 65.16L-184.21 65.16Q-192.71 65.16-198.41 62.75Q-204.11 60.33-207.54 55.64Q-210.97 50.96-212.42 44.14Q-213.87 37.33-213.87 28.54L-213.87 28.54L-213.87-39.20L-193.10-39.20L-193.10 18.59Q-193.10 26.22-192.62 31.49Q-192.13 36.75-190.59 39.99Q-189.04 43.23-186.14 44.68Q-183.24 46.13-178.51 46.13L-178.51 46.13Q-175.32 46.13-171.70 44.87Q-168.07 43.61-164.26 41.49Q-160.44 39.36-156.67 36.51Q-152.90 33.66-149.42 30.47L-149.42 30.47L-149.42-39.20L-128.65-39.20L-128.65 62.17Z"/><path fill="#ffffff" opacity="1" d="M-8.06 10.76L-8.06 10.76Q-8.06 21.68-10.28 31.53Q-12.50 41.39-17.33 48.88Q-22.17 56.37-29.80 60.76Q-37.43 65.16-48.26 65.16L-48.26 65.16Q-52.60 65.16-56.90 64.19Q-61.20 63.23-65.16 61.59Q-69.13 59.94-72.61 57.77Q-76.08 55.59-78.79 53.28L-78.79 53.28L-80.34 62.17L-98.11 62.17L-98.11-81.71L-77.34-81.71L-77.34-30.02Q-71.35-35.23-63.62-38.66Q-55.89-42.09-46.90-42.09L-46.90-42.09Q-36.66-42.09-29.32-38.33Q-21.97-34.56-17.24-27.65Q-12.50-20.74-10.28-10.98Q-8.06-1.22-8.06 10.76ZM-29.51 11.15L-29.51 11.15Q-29.51-6.25-34.92-14.99Q-40.33-23.74-52.02-23.74L-52.02-23.74Q-55.41-23.74-58.88-22.82Q-62.36-21.90-65.60-20.31Q-68.84-18.71-71.83-16.63Q-74.83-14.56-77.34-12.24L-77.34-12.24L-77.34 36.85Q-75.02 38.88-72.12 40.67Q-69.22 42.45-66.03 43.81Q-62.85 45.16-59.56 45.93Q-56.28 46.71-53.18 46.71L-53.18 46.71Q-48.26 46.71-43.91 44.77Q-39.56 42.84-36.37 38.59Q-33.18 34.34-31.35 27.57Q-29.51 20.81-29.51 11.15Z"/></g><g transform="matrix(1 0 0 1 808.124344235666 315.04923922465457)" style=""><path fill="#ffffff" opacity="1" d="M-380.11 16.61L-365.25-17.76L-360.60-17.76L-345.80 16.61L-349.97 16.61L-354.89 5.03L-371.23 5.03L-376.04 16.61L-380.11 16.61ZM-362.66-13.69L-363.40-13.69L-369.85 1.75L-356.26 1.75L-362.66-13.69Z"/><path fill="#ffffff" opacity="1" d="M-341.04 16.61L-341.04-9.83L-337.23-9.83L-337.23 16.61L-341.04 16.61ZM-341.33-20.22Q-340.51-21.09-339.13-21.09Q-337.76-21.09-336.94-20.22Q-336.12-19.34-336.12-18.08L-336.12-18.08Q-336.12-16.86-336.97-15.96Q-337.81-15.06-339.13-15.06Q-340.46-15.06-341.30-15.96Q-342.15-16.86-342.15-18.08L-342.15-18.08Q-342.15-19.34-341.33-20.22Z"/><path fill="#ffffff" opacity="1" d="M-330.36 16.61L-330.36-9.83L-327.13-9.83L-326.81-4.96Q-325.07-7.71-322.32-9.03Q-319.57-10.36-316.66-10.36L-316.66-10.36Q-311.80-10.36-309.00-6.87L-309.00-6.87L-311.64-4.43Q-313.81-6.97-317.30-6.97L-317.30-6.97Q-322.80-6.97-326.55-1.26L-326.55-1.26L-326.55 16.61L-330.36 16.61Z"/><path fill="#ffffff" opacity="1" d="M-300.69 28.77L-304.50 28.77L-304.50-8.82Q-298.90-10.36-292.82-10.36L-292.82-10.36Q-285.78-10.36-282.00-6.87Q-278.22-3.38-278.22 3.18L-278.22 3.18Q-278.22 9.26-281.82 13.20Q-285.41 17.14-291.81 17.14L-291.81 17.14Q-294.61 17.14-296.60 16.53Q-298.58 15.92-300.69 14.23L-300.69 14.23L-300.69 28.77ZM-300.69-6.02L-300.69-6.02L-300.69 10.21Q-296.78 13.70-291.81 13.70L-291.81 13.70Q-287.48 13.70-284.78 10.87Q-282.08 8.04-282.08 3.18L-282.08 3.18Q-282.08-1.95-284.99-4.54Q-287.90-7.13-292.97-7.13L-292.97-7.13Q-296.94-7.13-300.69-6.02Z"/><path fill="#ffffff" opacity="1" d="M-249.41-6.58Q-245.23-2.79-245.23 3.39Q-245.23 9.58-249.41 13.36Q-253.58 17.14-259.88 17.14Q-266.17 17.14-270.34 13.36Q-274.52 9.58-274.52 3.39Q-274.52-2.79-270.34-6.58Q-266.17-10.36-259.88-10.36Q-253.58-10.36-249.41-6.58ZM-267.67-4.28Q-270.66-1.37-270.66 3.39Q-270.66 8.15-267.67 11.06Q-264.69 13.97-259.88 13.97Q-255.06 13.97-252.08 11.06Q-249.09 8.15-249.09 3.39Q-249.09-1.37-252.08-4.28Q-255.06-7.18-259.88-7.18Q-264.69-7.18-267.67-4.28Z"/><path fill="#ffffff" opacity="1" d="M-218.53-7.71L-218.53-21.99L-214.72-21.99L-214.72 15.50Q-220.43 17.14-227.78 17.14L-227.78 17.14Q-234.18 17.14-237.85 13.65Q-241.53 10.16-241.53 3.44L-241.53 3.44Q-241.53-2.69-237.54-6.52Q-233.54-10.36-227.41-10.36L-227.41-10.36Q-222.44-10.36-218.53-7.71L-218.53-7.71ZM-218.53 12.75L-218.53 12.75L-218.53-3.85Q-222.34-7.08-226.99-7.08L-226.99-7.08Q-231.54-7.08-234.58-4.33Q-237.62-1.58-237.62 3.39L-237.62 3.39Q-237.62 8.57-234.63 11.16Q-231.64 13.75-226.67 13.75L-226.67 13.75Q-222.02 13.75-218.53 12.75Z"/><path fill="#ffffff" opacity="1" d="M-188.66-8.82L-188.66-8.82L-189.98-5.65Q-193.57-7.13-197.86-7.13L-197.86-7.13Q-205.15-7.13-205.15-3.22L-205.15-3.22Q-205.15-1.21-203.35-0.34Q-201.56 0.54-197.54 1.06L-197.54 1.06Q-187.23 2.44-187.23 9.37L-187.23 9.37Q-187.23 13.28-190.48 15.21Q-193.73 17.14-199.65 17.14L-199.65 17.14Q-205.20 17.14-208.91 15.55L-208.91 15.55L-207.90 12.17Q-204.09 13.81-199.86 13.81L-199.86 13.81Q-190.88 13.81-190.88 9.31L-190.88 9.31Q-190.88 7.15-192.70 6.06Q-194.52 4.98-198.81 4.50L-198.81 4.50Q-208.85 3.39-208.85-3.01L-208.85-3.01Q-208.85-6.28-206.02-8.32Q-203.20-10.36-197.80-10.36L-197.80-10.36Q-192.62-10.36-188.66-8.82Z"/></g></svg>
