<?xml version="1.0" encoding="UTF-8" standalone="no" ?>
<!DOCTYPE svg PUBLIC "-//W3C//DTD SVG 1.1//EN" "http://www.w3.org/Graphics/SVG/1.1/DTD/svg11.dtd">
<svg xmlns="http://www.w3.org/2000/svg" xmlns:xlink="http://www.w3.org/1999/xlink" version="1.1" width="1200" height="630" viewBox="0 0 1200 630" xml:space="preserve">
<desc>Created with Fabric.js 3.6.3</desc>
<defs>
</defs>
<rect x="0" y="0" width="100%" height="100%" fill="#F54F29"></rect>
<g transform="matrix(2.0403497912858515 0 0 2.0403497912858515 856.0285714285716 314.99999999999994)"  >
<g style=""   >
		<g transform="matrix(0.42682564127511236 0.06517436266088783 -0.06517436266088786 0.4268256412751124 -267.9999793884165 1.421085e-14)"  >
<path style="stroke: none; stroke-width: 0; stroke-dasharray: none; stroke-linecap: round; stroke-dashoffset: 0; stroke-linejoin: round; stroke-miterlimit: 4; fill: rgb(255,255,255); fill-rule: nonzero; opacity: 0.3;"  transform=" translate(-347.214464, -408.15557)" d="m 239.32338 158.15557 c -78.60067 0 -142.108912 63.50635 -142.108912 142.10701 l 0 215.78407 c 0 78.60067 63.508242 142.10892 142.108912 142.10892 l 215.78217 0 c 78.60067 0 142.10891 -63.50825 142.10891 -142.10892 l 0 -215.78407 c 0 -78.60066 -63.50824 -142.10701 -142.10891 -142.10701 l -215.78217 0 z" stroke-linecap="round" />
</g>
		<g transform="matrix(0.39450159630063775 -9.663e-17 9.663e-17 0.3945015963006377 -267.99997938841557 1.1368684e-13)"  >
<path style="stroke: none; stroke-width: 0; stroke-dasharray: none; stroke-linecap: round; stroke-dashoffset: 0; stroke-linejoin: round; stroke-miterlimit: 4; fill: rgb(255,255,255); fill-rule: nonzero; opacity: 1;"  transform=" translate(-347.214464, -408.15557)" d="m 239.32338 158.15557 c -78.60067 0 -142.108912 63.50635 -142.108912 142.10701 l 0 215.78407 c 0 78.60067 63.508242 142.10892 142.108912 142.10892 l 215.78217 0 c 78.60067 0 142.10891 -63.50825 142.10891 -142.10892 l 0 -215.78407 c 0 -78.60066 -63.50824 -142.10701 -142.10891 -142.10701 l -215.78217 0 z" stroke-linecap="round" />
</g>
		<g transform="matrix(0.921577993793087 0 0 0.921577993793087 -267.9999793884165 5.4001248e-13)"  >
<g style=""   >
		<g transform="matrix(1.3333333333333335 0 0 1.3333333333333335 -21.07799999999999 54.83333333333334)"  >
<path style="stroke: none; stroke-width: 1; stroke-dasharray: none; stroke-linecap: butt; stroke-dashoffset: 0; stroke-linejoin: miter; stroke-miterlimit: 4; fill: rgb(245,79,41); fill-rule: nonzero; opacity: 1;"  transform=" translate(-33.691500000000005, -90.625)" d="m 29.004 90.625 c 0 2.5898 2.0977 4.6875 4.6875 4.6875 s 4.6875 -2.0977 4.6875 -4.6875 v -4.6875 h -9.375 z" stroke-linecap="round" />
</g>
		<g transform="matrix(1.3333333333333335 0 0 1.3333333333333335 -22.205999999999996 -20.760000000000005)"  >
<path style="stroke: none; stroke-width: 1; stroke-dasharray: none; stroke-linecap: butt; stroke-dashoffset: 0; stroke-linejoin: miter; stroke-miterlimit: 4; fill: rgb(245,79,41); fill-rule: nonzero; opacity: 1;"  transform=" translate(-32.8455, -33.93)" d="m 38.25 42.059 c -0.75 -7.0625 -4.9219 -13.098 -10.809 -16.258 v 3.8867 c 0.011719 6.2422 4.6211 11.523 10.809 12.371 z" stroke-linecap="round" />
</g>
		<g transform="matrix(1.3333333333333335 0 0 1.3333333333333335 -37.74516 4.832567581469711)"  >
<path style="stroke: none; stroke-width: 1; stroke-dasharray: none; stroke-linecap: butt; stroke-dashoffset: 0; stroke-linejoin: miter; stroke-miterlimit: 4; fill: rgb(245,79,41); fill-rule: nonzero; opacity: 1;"  transform=" translate(-21.19113, -53.12442568610228)" d="m 24.316 29.688 v -5.2305 c -1.6055 -0.53906 -3.2734 -0.87109 -4.9609 -0.98047 c -3.0195 -0.19531 -6.0469 0.28906 -8.8555 1.4219 c -3.8867 1.5664 -6.4961 5.582 -6.4961 10 v 17.688 c 0 4.5352 2.7812 8.6289 6.9258 10.188 v -0.003907 c 5.1562 1.9219 10.867 1.6836 15.844 -0.66016 c 0.48047 -0.23047 1.0508 -0.19531 1.5039 0.089844 c 0.45312 0.28906 0.72656 0.78516 0.72656 1.3203 v 19.293 h 9.375 v -37.578 c -3.8516 -0.39062 -7.4219 -2.1992 -10.02 -5.0703 c -2.5977 -2.8711 -4.0391 -6.6055 -4.043 -10.477 z m -14.062 20.312 c 0 0.86328 -0.69922 1.5625 -1.5625 1.5625 c -0.86328 0 -1.5625 -0.69922 -1.5625 -1.5625 v -12.5 c 0 -0.86328 0.69922 -1.5625 1.5625 -1.5625 c 0.86328 0 1.5625 0.69922 1.5625 1.5625 z" stroke-linecap="round" />
</g>
		<g transform="matrix(1.3333333333333335 0 0 1.3333333333333335 4.205800000000021 -18.8596)"  >
<path style="stroke: none; stroke-width: 1; stroke-dasharray: none; stroke-linecap: butt; stroke-dashoffset: 0; stroke-linejoin: miter; stroke-miterlimit: 4; fill: rgb(245,79,41); fill-rule: nonzero; opacity: 1;"  transform=" translate(-52.65435000000001, -35.3553)" d="m 57.418 35.121 c -1.2656 -1.9922 -2.1992 -4.1797 -2.7617 -6.4727 c -3.8164 3.4961 -6.2266 8.2656 -6.7656 13.414 c 4.1406 -0.56641 7.7188 -3.1758 9.5273 -6.9414 z" stroke-linecap="round" />
</g>
		<g transform="matrix(1.3333333333333335 0 0 1.3333333333333335 3.9220000000000077 54.83333333333334)"  >
<path style="stroke: none; stroke-width: 1; stroke-dasharray: none; stroke-linecap: butt; stroke-dashoffset: 0; stroke-linejoin: miter; stroke-miterlimit: 4; fill: rgb(245,79,41); fill-rule: nonzero; opacity: 1;"  transform=" translate(-52.4415, -90.625)" d="m 47.754 90.625 c 0 2.5898 2.0977 4.6875 4.6875 4.6875 s 4.6875 -2.0977 4.6875 -4.6875 v -4.6875 h -9.375 z" stroke-linecap="round" />
</g>
		<g transform="matrix(1.3333333333333335 0 0 1.3333333333333335 35.17200000000002 -34.74973333333334)"  >
<path style="stroke: none; stroke-width: 1; stroke-dasharray: none; stroke-linecap: butt; stroke-dashoffset: 0; stroke-linejoin: miter; stroke-miterlimit: 4; fill: rgb(245,79,41); fill-rule: nonzero; opacity: 1;"  transform=" translate(-75.879, -23.4377)" d="m 75.879 4.6875 c -4.9727 0 -9.7422 1.9766 -13.258 5.4922 c -3.5156 3.5156 -5.4922 8.2852 -5.4922 13.258 s 1.9766 9.7422 5.4922 13.258 c 3.5156 3.5156 8.2852 5.4922 13.258 5.4922 s 9.7422 -1.9766 13.258 -5.4922 c 3.5156 -3.5156 5.4922 -8.2852 5.4922 -13.258 c -0.003906 -4.9727 -1.9844 -9.7383 -5.4961 -13.254 c -3.5156 -3.5117 -8.2812 -5.4922 -13.254 -5.4961 z m 0 31.25 c -1.8945 0 -3.6055 -1.1406 -4.332 -2.8945 c -0.72266 -1.75 -0.32422 -3.7656 1.0156 -5.1094 c 1.3438 -1.3398 3.3594 -1.7383 5.1094 -1.0156 c 1.7539 0.72656 2.8945 2.4375 2.8945 4.332 c -0.003906 2.5859 -2.1016 4.6836 -4.6875 4.6875 z m 9.5938 -10.559 c -0.62891 0.59375 -1.6172 0.5625 -2.207 -0.066406 c -1.8438 -2.0195 -4.4492 -3.168 -7.1797 -3.168 c -2.7344 0 -5.3398 1.1484 -7.1797 3.168 c -0.58984 0.62891 -1.582 0.66016 -2.2109 0.066406 c -0.62891 -0.58984 -0.65625 -1.5781 -0.066406 -2.207 c 2.4336 -2.6484 5.8633 -4.1523 9.457 -4.1523 s 7.0234 1.5039 9.4531 4.1523 c 0.59375 0.62891 0.5625 1.6172 -0.066406 2.207 z m 3.0898 -4.2617 c -0.42969 0 -0.84375 -0.17969 -1.1406 -0.49219 c -3.0312 -3.2266 -7.0586 -5 -11.336 -5 c -4.2773 0 -8.3047 1.7734 -11.34 5 c -0.58984 0.62891 -1.582 0.66016 -2.2109 0.066406 c -0.62891 -0.58984 -0.65625 -1.582 -0.066406 -2.207 c 3.6328 -3.8594 8.4688 -5.9844 13.617 -5.9844 c 5.1484 0 9.9805 2.125 13.617 5.9844 h -0.003906 c 0.42969 0.45312 0.54688 1.1172 0.29688 1.6914 c -0.24609 0.57031 -0.80859 0.94141 -1.4336 0.94141 z" stroke-linecap="round" />
</g>
		<g transform="matrix(1.3333333333333335 0 0 1.3333333333333335 35.17133333333335 -24.333333333333332)"  >
<path style="stroke: none; stroke-width: 1; stroke-dasharray: none; stroke-linecap: butt; stroke-dashoffset: 0; stroke-linejoin: miter; stroke-miterlimit: 4; fill: rgb(245,79,41); fill-rule: nonzero; opacity: 1;"  transform=" translate(-75.8785, -31.25)" d="m 77.441 31.25 c 0 2.082 -3.125 2.082 -3.125 0 s 3.125 -2.082 3.125 0" stroke-linecap="round" />
</g>
		<g transform="matrix(1.3333333333333335 0 0 1.3333333333333335 20.588840000000015 14.46360000000001)"  >
<path style="stroke: none; stroke-width: 1; stroke-dasharray: none; stroke-linecap: butt; stroke-dashoffset: 0; stroke-linejoin: miter; stroke-miterlimit: 4; fill: rgb(245,79,41); fill-rule: nonzero; opacity: 1;"  transform=" translate(-64.94163, -60.3477)" d="m 79.004 50 c 0 0.86328 -0.69922 1.5625 -1.5625 1.5625 c -0.86328 0 -1.5625 -0.69922 -1.5625 -1.5625 v -4.6875 c -6.2773 -0.003906 -12.246 -2.7109 -16.383 -7.4297 c -2.5469 4.1523 -6.8945 6.8711 -11.742 7.3438 v 37.586 h 9.375 v -19.293 c 0 -0.53516 0.27344 -1.0352 0.72656 -1.3203 c 0.45312 -0.28516 1.0234 -0.32031 1.5039 -0.089844 c 4.9766 2.3398 10.688 2.582 15.844 0.66016 c 4.1406 -1.5586 6.9258 -5.6523 6.9258 -10.188 v -8.1914 c -1.0234 0.30078 -2.0664 0.52734 -3.125 0.67188 z" stroke-linecap="round" />
</g>
</g>
</g>
		<g transform="matrix(1 0 0 1 132.6377186575957 -14.164587124916451)" style=""  ><path fill="#ffffff" opacity="1" d="M-234.17-41.10L-234.17-41.10Q-234.17-37.12-236.07-35.58Q-237.97-34.04-241.94-34.04L-241.94-34.04Q-246.29-34.04-247.94-35.85Q-249.60-37.66-249.60-41.10L-249.60-41.10Q-249.60-44.84-247.85-46.49Q-246.11-48.15-241.94-48.15L-241.94-48.15Q-237.78-48.15-235.98-46.52Q-234.17-44.90-234.17-41.10ZM-235.37 38.79L-248.34 38.79L-248.34-24.46L-235.37-24.46L-235.37 38.79Z"/><path fill="#ffffff" opacity="1" d="M-152.29 38.79L-166.40 38.79L-166.40 2.01L-201.85 2.01L-201.85 38.79L-215.90 38.79L-215.90-44.66L-201.85-44.66L-201.85-10.83L-166.40-10.83L-166.40-44.66L-152.29-44.66L-152.29 38.79Z"/><path fill="#ffffff" opacity="1" d="M-80.12 38.79L-93.08 38.79L-93.08 30.05Q-95.19 32.16-97.69 34.09Q-100.20 36.02-103.00 37.46Q-105.80 38.91-108.79 39.78Q-111.77 40.66-114.79 40.66L-114.79 40.66Q-120.09 40.66-123.65 39.15Q-127.21 37.64-129.35 34.72Q-131.49 31.80-132.39 27.55Q-133.30 23.29-133.30 17.81L-133.30 17.81L-133.30-24.46L-120.33-24.46L-120.33 11.60Q-120.33 16.36-120.03 19.65Q-119.73 22.93-118.77 24.95Q-117.80 26.97-115.99 27.88Q-114.18 28.78-111.23 28.78L-111.23 28.78Q-109.24 28.78-106.98 28.00Q-104.72 27.21-102.34 25.89Q-99.95 24.56-97.60 22.78Q-95.25 21.00-93.08 19.01L-93.08 19.01L-93.08-24.46L-80.12-24.46L-80.12 38.79Z"/><path fill="#ffffff" opacity="1" d="M-4.87 6.71L-4.87 6.71Q-4.87 13.53-6.26 19.68Q-7.65 25.83-10.66 30.50Q-13.68 35.17-18.44 37.92Q-23.20 40.66-29.95 40.66L-29.95 40.66Q-32.67 40.66-35.35 40.06Q-38.03 39.45-40.51 38.43Q-42.98 37.40-45.15 36.05Q-47.32 34.69-49.01 33.24L-49.01 33.24L-49.97 38.79L-61.07 38.79L-61.07-50.99L-48.10-50.99L-48.10-18.73Q-44.36-21.99-39.54-24.13Q-34.72-26.27-29.11-26.27L-29.11-26.27Q-22.72-26.27-18.14-23.91Q-13.56-21.56-10.60-17.25Q-7.65-12.94-6.26-6.85Q-4.87-0.76-4.87 6.71ZM-18.26 6.96L-18.26 6.96Q-18.26-3.90-21.63-9.35Q-25.01-14.81-32.31-14.81L-32.31-14.81Q-34.42-14.81-36.59-14.24Q-38.76-13.66-40.78-12.67Q-42.80-11.68-44.67-10.38Q-46.54-9.08-48.10-7.64L-48.10-7.64L-48.10 22.99Q-46.66 24.26-44.85 25.37Q-43.04 26.49-41.05 27.33Q-39.06 28.18-37.01 28.66Q-34.96 29.14-33.03 29.14L-33.03 29.14Q-29.95 29.14-27.24 27.94Q-24.53 26.73-22.54 24.08Q-20.55 21.43-19.40 17.21Q-18.26 12.98-18.26 6.96Z"/></g>		<g transform="matrix(1 0 0 1 118.63773975734901 70.05198712491655)" style=""  ><path fill="#ffffff" opacity="1" d="M-237.04 10.37L-227.76-11.08L-224.86-11.08L-215.62 10.37L-218.23 10.37L-221.30 3.14L-231.49 3.14L-234.50 10.37L-237.04 10.37ZM-226.15-8.54L-226.61-8.54L-230.64 1.09L-222.15 1.09L-226.15-8.54Z"/><path fill="#ffffff" opacity="1" d="M-212.65 10.37L-212.65-6.13L-210.27-6.13L-210.27 10.37L-212.65 10.37ZM-212.83-12.62Q-212.32-13.16-211.46-13.16Q-210.60-13.16-210.09-12.62Q-209.58-12.07-209.58-11.28L-209.58-11.28Q-209.58-10.52-210.11-9.96Q-210.64-9.40-211.46-9.40Q-212.29-9.40-212.82-9.96Q-213.34-10.52-213.34-11.28L-213.34-11.28Q-213.34-12.07-212.83-12.62Z"/><path fill="#ffffff" opacity="1" d="M-205.98 10.37L-205.98-6.13L-203.97-6.13L-203.77-3.10Q-202.68-4.81-200.97-5.64Q-199.25-6.46-197.44-6.46L-197.44-6.46Q-194.40-6.46-192.65-4.29L-192.65-4.29L-194.30-2.77Q-195.66-4.35-197.83-4.35L-197.83-4.35Q-201.27-4.35-203.61-0.79L-203.61-0.79L-203.61 10.37L-205.98 10.37Z"/><path fill="#ffffff" opacity="1" d="M-187.47 17.96L-189.85 17.96L-189.85-5.51Q-186.35-6.46-182.55-6.46L-182.55-6.46Q-178.17-6.46-175.81-4.29Q-173.45-2.11-173.45 1.98L-173.45 1.98Q-173.45 5.78-175.69 8.24Q-177.93 10.70-181.93 10.70L-181.93 10.70Q-183.68 10.70-184.91 10.32Q-186.15 9.94-187.47 8.88L-187.47 8.88L-187.47 17.96ZM-187.47-3.76L-187.47-3.76L-187.47 6.37Q-185.03 8.55-181.93 8.55L-181.93 8.55Q-179.22 8.55-177.54 6.79Q-175.86 5.02-175.86 1.98L-175.86 1.98Q-175.86-1.22-177.67-2.83Q-179.49-4.45-182.65-4.45L-182.65-4.45Q-185.13-4.45-187.47-3.76Z"/><path fill="#ffffff" opacity="1" d="M-155.46-4.10Q-152.85-1.74-152.85 2.12Q-152.85 5.98-155.46 8.34Q-158.07 10.70-162.00 10.70Q-165.92 10.70-168.53 8.34Q-171.14 5.98-171.14 2.12Q-171.14-1.74-168.53-4.10Q-165.92-6.46-162.00-6.46Q-158.07-6.46-155.46-4.10ZM-166.86-2.67Q-168.73-0.85-168.73 2.12Q-168.73 5.09-166.86 6.90Q-165.00 8.72-162.00 8.72Q-158.99 8.72-157.13 6.90Q-155.26 5.09-155.26 2.12Q-155.26-0.85-157.13-2.67Q-158.99-4.48-162.00-4.48Q-165.00-4.48-166.86-2.67Z"/><path fill="#ffffff" opacity="1" d="M-136.19-4.81L-136.19-13.72L-133.81-13.72L-133.81 9.67Q-137.38 10.70-141.96 10.70L-141.96 10.70Q-145.96 10.70-148.25 8.52Q-150.54 6.34-150.54 2.15L-150.54 2.15Q-150.54-1.68-148.05-4.07Q-145.56-6.46-141.73-6.46L-141.73-6.46Q-138.63-6.46-136.19-4.81L-136.19-4.81ZM-136.19 7.96L-136.19 7.96L-136.19-2.40Q-138.57-4.42-141.47-4.42L-141.47-4.42Q-144.31-4.42-146.20-2.70Q-148.10-0.99-148.10 2.12L-148.10 2.12Q-148.10 5.35-146.24 6.97Q-144.37 8.58-141.27 8.58L-141.27 8.58Q-138.37 8.58-136.19 7.96Z"/><path fill="#ffffff" opacity="1" d="M-117.54-5.51L-117.54-5.51L-118.37-3.53Q-120.61-4.45-123.29-4.45L-123.29-4.45Q-127.84-4.45-127.84-2.01L-127.84-2.01Q-127.84-0.75-126.72-0.21Q-125.60 0.33-123.09 0.66L-123.09 0.66Q-116.65 1.52-116.65 5.85L-116.65 5.85Q-116.65 8.29-118.68 9.49Q-120.71 10.70-124.41 10.70L-124.41 10.70Q-127.87 10.70-130.18 9.71L-130.18 9.71L-129.56 7.59Q-127.18 8.62-124.54 8.62L-124.54 8.62Q-118.93 8.62-118.93 5.81L-118.93 5.81Q-118.93 4.46-120.07 3.78Q-121.21 3.11-123.88 2.81L-123.88 2.81Q-130.15 2.12-130.15-1.88L-130.15-1.88Q-130.15-3.92-128.38-5.19Q-126.62-6.46-123.25-6.46L-123.25-6.46Q-120.02-6.46-117.54-5.51Z"/></g></g>
</g>
</svg>