<?xml version="1.0" encoding="UTF-8" standalone="no"?>
<!DOCTYPE svg PUBLIC "-//W3C//DTD SVG 1.1//EN" "http://www.w3.org/Graphics/SVG/1.1/DTD/svg11.dtd">
<svg xmlns="http://www.w3.org/2000/svg" xmlns:xlink="http://www.w3.org/1999/xlink" version="1.1" width="362.8346456692914" height="211.65354330708664" viewBox="0 0 363 212" xml:space="preserve">
<desc>Created with Fabric.js 3.6.3</desc>
<defs>
</defs>
<rect x="0" y="0" width="100%" height="100%" fill="#ffffff"/>
<g transform="matrix(1 0 0 1 181.5 105.99999999999999)">
<rect style="stroke: none; stroke-width: 1; stroke-dasharray: none; stroke-linecap: butt; stroke-dashoffset: 0; stroke-linejoin: miter; stroke-miterlimit: 4; fill: rgb(245,79,41); fill-rule: nonzero; opacity: 1;" x="-181.5" y="-106" rx="0" ry="0" width="363" height="212"/>
</g>
<g transform="matrix(1.359612993418673 0 0 1.359612993418673 265.6442289581111 105.99999999999999)">
<g style="">
		<g transform="matrix(0.21341282063755618 0.032587181330443915 -0.03258718133044393 0.2134128206375562 -134.24998969420824 7.10543e-15)">
<path style="stroke: none; stroke-width: 0; stroke-dasharray: none; stroke-linecap: round; stroke-dashoffset: 0; stroke-linejoin: round; stroke-miterlimit: 4; fill: rgb(255,255,255); fill-rule: nonzero; opacity: 0.3;" transform=" translate(-347.214464, -408.15557)" d="m 239.32338 158.15557 c -78.60067 0 -142.108912 63.50635 -142.108912 142.10701 l 0 215.78407 c 0 78.60067 63.508242 142.10892 142.108912 142.10892 l 215.78217 0 c 78.60067 0 142.10891 -63.50825 142.10891 -142.10892 l 0 -215.78407 c 0 -78.60066 -63.50824 -142.10701 -142.10891 -142.10701 l -215.78217 0 z" stroke-linecap="round"/>
</g>
		<g transform="matrix(0.19725079815031887 -4.831e-17 4.831e-17 0.19725079815031885 -134.24998969420807 5.684342e-14)">
<path style="stroke: none; stroke-width: 0; stroke-dasharray: none; stroke-linecap: round; stroke-dashoffset: 0; stroke-linejoin: round; stroke-miterlimit: 4; fill: rgb(255,255,255); fill-rule: nonzero; opacity: 1;" transform=" translate(-347.214464, -408.15557)" d="m 239.32338 158.15557 c -78.60067 0 -142.108912 63.50635 -142.108912 142.10701 l 0 215.78407 c 0 78.60067 63.508242 142.10892 142.108912 142.10892 l 215.78217 0 c 78.60067 0 142.10891 -63.50825 142.10891 -142.10892 l 0 -215.78407 c 0 -78.60066 -63.50824 -142.10701 -142.10891 -142.10701 l -215.78217 0 z" stroke-linecap="round"/>
</g>
		<g transform="matrix(0.4607889968965435 0 0 0.4607889968965435 -134.24998969420824 2.7000624e-13)">
<g style="">
		<g transform="matrix(1.3333333333333335 0 0 1.3333333333333335 -21.07799999999999 54.83333333333334)">
<path style="stroke: none; stroke-width: 1; stroke-dasharray: none; stroke-linecap: butt; stroke-dashoffset: 0; stroke-linejoin: miter; stroke-miterlimit: 4; fill: rgb(245,79,41); fill-rule: nonzero; opacity: 1;" transform=" translate(-33.691500000000005, -90.625)" d="m 29.004 90.625 c 0 2.5898 2.0977 4.6875 4.6875 4.6875 s 4.6875 -2.0977 4.6875 -4.6875 v -4.6875 h -9.375 z" stroke-linecap="round"/>
</g>
		<g transform="matrix(1.3333333333333335 0 0 1.3333333333333335 -22.205999999999996 -20.760000000000005)">
<path style="stroke: none; stroke-width: 1; stroke-dasharray: none; stroke-linecap: butt; stroke-dashoffset: 0; stroke-linejoin: miter; stroke-miterlimit: 4; fill: rgb(245,79,41); fill-rule: nonzero; opacity: 1;" transform=" translate(-32.8455, -33.93)" d="m 38.25 42.059 c -0.75 -7.0625 -4.9219 -13.098 -10.809 -16.258 v 3.8867 c 0.011719 6.2422 4.6211 11.523 10.809 12.371 z" stroke-linecap="round"/>
</g>
		<g transform="matrix(1.3333333333333335 0 0 1.3333333333333335 -37.74516 4.832567581469711)">
<path style="stroke: none; stroke-width: 1; stroke-dasharray: none; stroke-linecap: butt; stroke-dashoffset: 0; stroke-linejoin: miter; stroke-miterlimit: 4; fill: rgb(245,79,41); fill-rule: nonzero; opacity: 1;" transform=" translate(-21.19113, -53.12442568610228)" d="m 24.316 29.688 v -5.2305 c -1.6055 -0.53906 -3.2734 -0.87109 -4.9609 -0.98047 c -3.0195 -0.19531 -6.0469 0.28906 -8.8555 1.4219 c -3.8867 1.5664 -6.4961 5.582 -6.4961 10 v 17.688 c 0 4.5352 2.7812 8.6289 6.9258 10.188 v -0.003907 c 5.1562 1.9219 10.867 1.6836 15.844 -0.66016 c 0.48047 -0.23047 1.0508 -0.19531 1.5039 0.089844 c 0.45312 0.28906 0.72656 0.78516 0.72656 1.3203 v 19.293 h 9.375 v -37.578 c -3.8516 -0.39062 -7.4219 -2.1992 -10.02 -5.0703 c -2.5977 -2.8711 -4.0391 -6.6055 -4.043 -10.477 z m -14.062 20.312 c 0 0.86328 -0.69922 1.5625 -1.5625 1.5625 c -0.86328 0 -1.5625 -0.69922 -1.5625 -1.5625 v -12.5 c 0 -0.86328 0.69922 -1.5625 1.5625 -1.5625 c 0.86328 0 1.5625 0.69922 1.5625 1.5625 z" stroke-linecap="round"/>
</g>
		<g transform="matrix(1.3333333333333335 0 0 1.3333333333333335 4.205800000000021 -18.8596)">
<path style="stroke: none; stroke-width: 1; stroke-dasharray: none; stroke-linecap: butt; stroke-dashoffset: 0; stroke-linejoin: miter; stroke-miterlimit: 4; fill: rgb(245,79,41); fill-rule: nonzero; opacity: 1;" transform=" translate(-52.65435000000001, -35.3553)" d="m 57.418 35.121 c -1.2656 -1.9922 -2.1992 -4.1797 -2.7617 -6.4727 c -3.8164 3.4961 -6.2266 8.2656 -6.7656 13.414 c 4.1406 -0.56641 7.7188 -3.1758 9.5273 -6.9414 z" stroke-linecap="round"/>
</g>
		<g transform="matrix(1.3333333333333335 0 0 1.3333333333333335 3.9220000000000077 54.83333333333334)">
<path style="stroke: none; stroke-width: 1; stroke-dasharray: none; stroke-linecap: butt; stroke-dashoffset: 0; stroke-linejoin: miter; stroke-miterlimit: 4; fill: rgb(245,79,41); fill-rule: nonzero; opacity: 1;" transform=" translate(-52.4415, -90.625)" d="m 47.754 90.625 c 0 2.5898 2.0977 4.6875 4.6875 4.6875 s 4.6875 -2.0977 4.6875 -4.6875 v -4.6875 h -9.375 z" stroke-linecap="round"/>
</g>
		<g transform="matrix(1.3333333333333335 0 0 1.3333333333333335 35.17200000000002 -34.74973333333334)">
<path style="stroke: none; stroke-width: 1; stroke-dasharray: none; stroke-linecap: butt; stroke-dashoffset: 0; stroke-linejoin: miter; stroke-miterlimit: 4; fill: rgb(245,79,41); fill-rule: nonzero; opacity: 1;" transform=" translate(-75.879, -23.4377)" d="m 75.879 4.6875 c -4.9727 0 -9.7422 1.9766 -13.258 5.4922 c -3.5156 3.5156 -5.4922 8.2852 -5.4922 13.258 s 1.9766 9.7422 5.4922 13.258 c 3.5156 3.5156 8.2852 5.4922 13.258 5.4922 s 9.7422 -1.9766 13.258 -5.4922 c 3.5156 -3.5156 5.4922 -8.2852 5.4922 -13.258 c -0.003906 -4.9727 -1.9844 -9.7383 -5.4961 -13.254 c -3.5156 -3.5117 -8.2812 -5.4922 -13.254 -5.4961 z m 0 31.25 c -1.8945 0 -3.6055 -1.1406 -4.332 -2.8945 c -0.72266 -1.75 -0.32422 -3.7656 1.0156 -5.1094 c 1.3438 -1.3398 3.3594 -1.7383 5.1094 -1.0156 c 1.7539 0.72656 2.8945 2.4375 2.8945 4.332 c -0.003906 2.5859 -2.1016 4.6836 -4.6875 4.6875 z m 9.5938 -10.559 c -0.62891 0.59375 -1.6172 0.5625 -2.207 -0.066406 c -1.8438 -2.0195 -4.4492 -3.168 -7.1797 -3.168 c -2.7344 0 -5.3398 1.1484 -7.1797 3.168 c -0.58984 0.62891 -1.582 0.66016 -2.2109 0.066406 c -0.62891 -0.58984 -0.65625 -1.5781 -0.066406 -2.207 c 2.4336 -2.6484 5.8633 -4.1523 9.457 -4.1523 s 7.0234 1.5039 9.4531 4.1523 c 0.59375 0.62891 0.5625 1.6172 -0.066406 2.207 z m 3.0898 -4.2617 c -0.42969 0 -0.84375 -0.17969 -1.1406 -0.49219 c -3.0312 -3.2266 -7.0586 -5 -11.336 -5 c -4.2773 0 -8.3047 1.7734 -11.34 5 c -0.58984 0.62891 -1.582 0.66016 -2.2109 0.066406 c -0.62891 -0.58984 -0.65625 -1.582 -0.066406 -2.207 c 3.6328 -3.8594 8.4688 -5.9844 13.617 -5.9844 c 5.1484 0 9.9805 2.125 13.617 5.9844 h -0.003906 c 0.42969 0.45312 0.54688 1.1172 0.29688 1.6914 c -0.24609 0.57031 -0.80859 0.94141 -1.4336 0.94141 z" stroke-linecap="round"/>
</g>
		<g transform="matrix(1.3333333333333335 0 0 1.3333333333333335 35.17133333333335 -24.333333333333332)">
<path style="stroke: none; stroke-width: 1; stroke-dasharray: none; stroke-linecap: butt; stroke-dashoffset: 0; stroke-linejoin: miter; stroke-miterlimit: 4; fill: rgb(245,79,41); fill-rule: nonzero; opacity: 1;" transform=" translate(-75.8785, -31.25)" d="m 77.441 31.25 c 0 2.082 -3.125 2.082 -3.125 0 s 3.125 -2.082 3.125 0" stroke-linecap="round"/>
</g>
		<g transform="matrix(1.3333333333333335 0 0 1.3333333333333335 20.588840000000015 14.46360000000001)">
<path style="stroke: none; stroke-width: 1; stroke-dasharray: none; stroke-linecap: butt; stroke-dashoffset: 0; stroke-linejoin: miter; stroke-miterlimit: 4; fill: rgb(245,79,41); fill-rule: nonzero; opacity: 1;" transform=" translate(-64.94163, -60.3477)" d="m 79.004 50 c 0 0.86328 -0.69922 1.5625 -1.5625 1.5625 c -0.86328 0 -1.5625 -0.69922 -1.5625 -1.5625 v -4.6875 c -6.2773 -0.003906 -12.246 -2.7109 -16.383 -7.4297 c -2.5469 4.1523 -6.8945 6.8711 -11.742 7.3438 v 37.586 h 9.375 v -19.293 c 0 -0.53516 0.27344 -1.0352 0.72656 -1.3203 c 0.45312 -0.28516 1.0234 -0.32031 1.5039 -0.089844 c 4.9766 2.3398 10.688 2.582 15.844 0.66016 c 4.1406 -1.5586 6.9258 -5.6523 6.9258 -10.188 v -8.1914 c -1.0234 0.30078 -2.0664 0.52734 -3.125 0.67188 z" stroke-linecap="round"/>
</g>
</g>
</g>
		<g transform="matrix(1 0 0 1 66.31885932879788 -6.854893562458244)" style=""><path fill="#ffffff" opacity="1" d="M-117.09-20.54L-117.09-20.54Q-117.09-18.55-118.04-17.78Q-118.99-17.01-120.98-17.01L-120.98-17.01Q-123.15-17.01-123.98-17.91Q-124.80-18.82-124.80-20.54L-124.80-20.54Q-124.80-22.40-123.93-23.23Q-123.06-24.06-120.98-24.06L-120.98-24.06Q-118.90-24.06-118.00-23.25Q-117.09-22.43-117.09-20.54ZM-117.69 19.38L-124.17 19.38L-124.17-12.22L-117.69-12.22L-117.69 19.38Z"/><path fill="#ffffff" opacity="1" d="M-76.18 19.38L-83.23 19.38L-83.23 1.00L-100.94 1.00L-100.94 19.38L-107.96 19.38L-107.96-22.31L-100.94-22.31L-100.94-5.41L-83.23-5.41L-83.23-22.31L-76.18-22.31L-76.18 19.38Z"/><path fill="#ffffff" opacity="1" d="M-40.12 19.38L-46.59 19.38L-46.59 15.01Q-47.65 16.07-48.90 17.03Q-50.15 18.00-51.55 18.72Q-52.95 19.44-54.44 19.88Q-55.93 20.32-57.44 20.32L-57.44 20.32Q-60.09 20.32-61.87 19.56Q-63.65 18.81-64.72 17.35Q-65.79 15.89-66.24 13.76Q-66.69 11.64-66.69 8.90L-66.69 8.90L-66.69-12.22L-60.21-12.22L-60.21 5.80Q-60.21 8.18-60.06 9.82Q-59.91 11.46-59.43 12.47Q-58.95 13.48-58.04 13.93Q-57.14 14.38-55.66 14.38L-55.66 14.38Q-54.67 14.38-53.54 13.99Q-52.41 13.60-51.22 12.94Q-50.03 12.27-48.85 11.38Q-47.68 10.49-46.59 9.50L-46.59 9.50L-46.59-12.22L-40.12-12.22L-40.12 19.38Z"/><path fill="#ffffff" opacity="1" d="M-2.52 3.35L-2.52 3.35Q-2.52 6.76-3.21 9.83Q-3.90 12.91-5.41 15.24Q-6.92 17.57-9.30 18.95Q-11.68 20.32-15.05 20.32L-15.05 20.32Q-16.41 20.32-17.75 20.02Q-19.09 19.71-20.32 19.20Q-21.56 18.69-22.64 18.01Q-23.73 17.33-24.57 16.61L-24.57 16.61L-25.05 19.38L-30.60 19.38L-30.60-25.48L-24.12-25.48L-24.12-9.36Q-22.25-10.99-19.84-12.06Q-17.43-13.12-14.63-13.12L-14.63-13.12Q-11.44-13.12-9.15-11.95Q-6.86-10.77-5.38-8.62Q-3.90-6.47-3.21-3.42Q-2.52-0.38-2.52 3.35ZM-9.21 3.48L-9.21 3.48Q-9.21-1.95-10.89-4.67Q-12.58-7.40-16.23-7.40L-16.23-7.40Q-17.28-7.40-18.37-7.11Q-19.45-6.83-20.46-6.33Q-21.47-5.83-22.40-5.19Q-23.34-4.54-24.12-3.82L-24.12-3.82L-24.12 11.49Q-23.40 12.12-22.49 12.68Q-21.59 13.24-20.59 13.66Q-19.60 14.08-18.58 14.32Q-17.55 14.56-16.59 14.56L-16.59 14.56Q-15.05 14.56-13.70 13.96Q-12.34 13.36-11.35 12.03Q-10.35 10.71-9.78 8.60Q-9.21 6.49-9.21 3.48Z"/></g>		<g transform="matrix(1 0 0 1 59.318869878674505 35.275993562458275)" style=""><path fill="#ffffff" opacity="1" d="M-118.52 5.18L-113.88-5.54L-112.43-5.54L-107.81 5.18L-109.11 5.18L-110.65 1.57L-115.75 1.57L-117.25 5.18L-118.52 5.18ZM-113.07-4.27L-113.30-4.27L-115.32 0.55L-111.08 0.55L-113.07-4.27Z"/><path fill="#ffffff" opacity="1" d="M-106.33 5.18L-106.33-3.07L-105.14-3.07L-105.14 5.18L-106.33 5.18ZM-106.42-6.31Q-106.16-6.58-105.73-6.58Q-105.30-6.58-105.05-6.31Q-104.79-6.04-104.79-5.64L-104.79-5.64Q-104.79-5.26-105.05-4.98Q-105.32-4.70-105.73-4.70Q-106.14-4.70-106.41-4.98Q-106.67-5.26-106.67-5.64L-106.67-5.64Q-106.67-6.04-106.42-6.31Z"/><path fill="#ffffff" opacity="1" d="M-102.99 5.18L-102.99-3.07L-101.99-3.07L-101.89-1.55Q-101.34-2.41-100.48-2.82Q-99.63-3.23-98.72-3.23L-98.72-3.23Q-97.20-3.23-96.33-2.14L-96.33-2.14L-97.15-1.38Q-97.83-2.18-98.92-2.18L-98.92-2.18Q-100.63-2.18-101.80-0.39L-101.80-0.39L-101.80 5.18L-102.99 5.18Z"/><path fill="#ffffff" opacity="1" d="M-93.74 8.98L-94.92 8.98L-94.92-2.75Q-93.17-3.23-91.28-3.23L-91.28-3.23Q-89.08-3.23-87.90-2.14Q-86.72-1.05-86.72 0.99L-86.72 0.99Q-86.72 2.89-87.85 4.12Q-88.97 5.35-90.96 5.35L-90.96 5.35Q-91.84 5.35-92.46 5.16Q-93.08 4.97-93.74 4.44L-93.74 4.44L-93.74 8.98ZM-93.74-1.88L-93.74-1.88L-93.74 3.19Q-92.51 4.28-90.96 4.28L-90.96 4.28Q-89.61 4.28-88.77 3.39Q-87.93 2.51-87.93 0.99L-87.93 0.99Q-87.93-0.61-88.84-1.42Q-89.74-2.23-91.33-2.23L-91.33-2.23Q-92.56-2.23-93.74-1.88Z"/><path fill="#ffffff" opacity="1" d="M-77.73-2.05Q-76.43-0.87-76.43 1.06Q-76.43 2.99-77.73 4.17Q-79.03 5.35-81.00 5.35Q-82.96 5.35-84.26 4.17Q-85.57 2.99-85.57 1.06Q-85.57-0.87-84.26-2.05Q-82.96-3.23-81.00-3.23Q-79.03-3.23-77.73-2.05ZM-83.43-1.33Q-84.36-0.43-84.36 1.06Q-84.36 2.54-83.43 3.45Q-82.50 4.36-81.00 4.36Q-79.50 4.36-78.56 3.45Q-77.63 2.54-77.63 1.06Q-77.63-0.43-78.56-1.33Q-79.50-2.24-81.00-2.24Q-82.50-2.24-83.43-1.33Z"/><path fill="#ffffff" opacity="1" d="M-68.09-2.41L-68.09-6.86L-66.91-6.86L-66.91 4.84Q-68.69 5.35-70.98 5.35L-70.98 5.35Q-72.98 5.35-74.13 4.26Q-75.27 3.17-75.27 1.07L-75.27 1.07Q-75.27-0.84-74.03-2.04Q-72.78-3.23-70.87-3.23L-70.87-3.23Q-69.32-3.23-68.09-2.41L-68.09-2.41ZM-68.09 3.98L-68.09 3.98L-68.09-1.20Q-69.28-2.21-70.73-2.21L-70.73-2.21Q-72.15-2.21-73.10-1.35Q-74.05-0.49-74.05 1.06L-74.05 1.06Q-74.05 2.68-73.12 3.48Q-72.19 4.29-70.64 4.29L-70.64 4.29Q-69.18 4.29-68.09 3.98Z"/><path fill="#ffffff" opacity="1" d="M-58.77-2.75L-58.77-2.75L-59.18-1.76Q-60.31-2.23-61.64-2.23L-61.64-2.23Q-63.92-2.23-63.92-1.00L-63.92-1.00Q-63.92-0.38-63.36-0.10Q-62.80 0.17-61.54 0.33L-61.54 0.33Q-58.33 0.76-58.33 2.92L-58.33 2.92Q-58.33 4.14-59.34 4.75Q-60.36 5.35-62.20 5.35L-62.20 5.35Q-63.94 5.35-65.09 4.85L-65.09 4.85L-64.78 3.80Q-63.59 4.31-62.27 4.31L-62.27 4.31Q-59.47 4.31-59.47 2.91L-59.47 2.91Q-59.47 2.23-60.03 1.89Q-60.60 1.55-61.94 1.40L-61.94 1.40Q-65.08 1.06-65.08-0.94L-65.08-0.94Q-65.08-1.96-64.19-2.60Q-63.31-3.23-61.63-3.23L-61.63-3.23Q-60.01-3.23-58.77-2.75Z"/></g></g>
</g>
</svg>
